<svg width="19" height="15" viewBox="0 0 19 15" fill="none" xmlns="http://www.w3.org/2000/svg">
<path d="M17.5852 8.25276H0.764576C0.342528 8.25276 0 7.87028 0 7.39902C0 6.92775 0.342528 6.54527 0.764576 6.54527H17.5852C18.0073 6.54527 18.3498 6.92775 18.3498 7.39902C18.3498 7.87028 18.0073 8.25276 17.5852 8.25276Z" fill="black"/>
<path d="M17.5852 1.70749H0.764576C0.342528 1.70749 0 1.32502 0 0.853747C0 0.382477 0.342528 0 0.764576 0H17.5852C18.0073 0 18.3498 0.382477 18.3498 0.853747C18.3498 1.32502 18.0073 1.70749 17.5852 1.70749Z" fill="black"/>
<path d="M17.5852 14.7982H0.764576C0.342528 14.7982 0 14.4158 0 13.9445C0 13.4732 0.342528 13.0907 0.764576 13.0907H17.5852C18.0073 13.0907 18.3498 13.4732 18.3498 13.9445C18.3498 14.4158 18.0073 14.7982 17.5852 14.7982Z" fill="black"/>
</svg>
